<svg width="144" height="32" viewBox="0 0 144 32" fill="none" xmlns="http://www.w3.org/2000/svg">
<g clip-path="url(#clip0_151_155)">
<path fill-rule="evenodd" clip-rule="evenodd" d="M17.3596 0.0872267C14.1311 -0.255817 10.8766 0.418217 8.04324 2.01668C5.20992 3.61515 2.93695 6.05957 1.53676 9.01397C0.136561 11.9684 -0.322123 15.2877 0.223751 18.5157C0.769625 21.7437 2.29326 24.722 4.58523 27.0411C6.8772 29.3602 9.82499 30.9063 13.0234 31.4669C16.2219 32.0275 19.5139 31.5751 22.4471 30.1719C25.3803 28.7686 27.8106 26.4834 29.404 23.6304C30.9974 20.7773 31.6757 17.4965 31.3456 14.2388C30.9824 10.6177 29.3933 7.23339 26.8458 4.65582C24.2984 2.07826 20.9483 0.464833 17.3596 0.0872267ZM16.8505 24.2385C15.1141 24.4735 13.3484 24.1538 11.8014 23.3242C10.2545 22.4946 9.0042 21.1969 8.22618 19.6136C7.44816 18.0302 7.18156 16.2407 7.46386 14.4966C7.74615 12.7525 8.56314 11.1414 9.8 9.88988C11.0369 8.63832 12.6314 7.80918 14.3596 7.51897C16.0877 7.22876 17.8626 7.49208 19.4347 8.27193C21.0068 9.05177 22.2972 10.3089 23.1244 11.8667C23.9517 13.4245 24.2742 15.2046 24.0467 16.9568C23.808 18.7999 22.9735 20.5122 21.6726 21.8285C20.3717 23.1449 18.6768 23.992 16.8505 24.2385ZM39.7501 0.714289C39.2051 0.715605 38.6673 0.839464 38.1757 1.07685C37.6841 1.31424 37.2512 1.65919 36.9085 2.0866C36.5657 2.514 36.3217 3.01312 36.1942 3.54762C36.0668 4.08212 36.059 4.63856 36.1716 5.17646C36.5164 6.91906 38.13 8.10973 39.8878 8.10973H50.0887L34.2138 29.3011C34.0964 29.4576 34.0245 29.6439 34.0062 29.8393C33.9879 30.0346 34.0239 30.2312 34.1101 30.4071C34.1964 30.583 34.3295 30.7311 34.4946 30.835C34.6596 30.9388 34.8501 30.9942 35.0446 30.995H59.946C61.7027 30.995 63.3175 29.8046 63.6623 28.0617C63.7748 27.5239 63.7672 26.9675 63.6398 26.4331C63.5125 25.8986 63.2686 25.3995 62.926 24.9721C62.5834 24.5447 62.1506 24.1996 61.6592 23.9621C61.1678 23.7246 60.6301 23.6005 60.0852 23.5989H47.6562L63.5189 2.42397C63.6375 2.266 63.7101 2.07784 63.7285 1.88059C63.747 1.68334 63.7106 1.4848 63.6234 1.30726C63.5362 1.12971 63.4017 0.980181 63.235 0.875441C63.0683 0.770702 62.8759 0.714897 62.6795 0.714289H39.7501ZM139.255 0.799593C138.43 0.997337 137.697 1.47296 137.177 2.14784C136.657 2.82271 136.381 3.6564 136.394 4.51108V16.8242L116.615 0.946855C116.46 0.822656 116.273 0.745148 116.076 0.723249C115.879 0.701351 115.68 0.73595 115.502 0.823068C115.324 0.910185 115.174 1.04628 115.069 1.2157C114.964 1.38512 114.908 1.58098 114.909 1.78074V27.2047C114.895 28.0594 115.172 28.8932 115.692 29.568C116.212 30.2429 116.945 30.7185 117.769 30.9162C118.304 31.0351 118.859 31.0311 119.393 30.9047C119.927 30.7784 120.425 30.5327 120.852 30.186C121.279 29.8393 121.624 29.4003 121.86 28.9014C122.096 28.4025 122.219 27.8564 122.218 27.3035V14.8838L141.998 30.7615C142.153 30.8856 142.34 30.9631 142.536 30.9849C142.733 31.0068 142.932 30.9722 143.11 30.8852C143.288 30.7981 143.438 30.662 143.543 30.4927C143.648 30.3234 143.704 30.1276 143.703 29.9279V4.41111C143.704 3.85832 143.581 3.31244 143.345 2.81373C143.108 2.31501 142.764 1.87618 142.337 1.52959C141.91 1.18299 141.412 0.937472 140.878 0.81113C140.345 0.684788 139.79 0.680846 139.255 0.799593ZM87.7539 7.40185C96.1201 7.40185 102.371 11.8616 102.371 15.8509C102.371 19.8401 96.1201 24.2999 87.7539 24.2999C79.3876 24.2999 73.1365 19.8401 73.1365 15.8509C73.1365 11.8616 79.3876 7.40185 87.7539 7.40185ZM87.7539 0.00671135C75.6441 0.00671135 65.8275 7.10044 65.8275 15.8509C65.8275 24.6013 75.6441 31.695 87.7539 31.695C99.8636 31.695 109.68 24.6013 109.68 15.8509C109.68 7.10044 99.8634 0.00671135 87.7539 0.00671135Z" fill="#0069FF"/>
</g>
<defs>
<clipPath id="clip0_151_155">
<rect width="144" height="32" fill="white"/>
</clipPath>
</defs>
</svg>
