<svg width="228" height="32" viewBox="0 0 228 32" fill="none" xmlns="http://www.w3.org/2000/svg">
<path d="M137.221 21.5759C137.221 18.954 135.393 16.4432 133.257 15.3418C134.702 13.9177 135.644 12.0152 135.644 10.172C135.644 6.04803 132.585 2.56936 126.927 2.56936H114.441V29.4085H128.658C133.602 29.4085 137.221 26.1598 137.221 21.5759ZM121.154 18.6758H127.734C128.09 18.663 128.445 18.7223 128.776 18.8502C129.107 18.9781 129.409 19.1717 129.661 19.4192C129.914 19.6667 130.113 19.9627 130.245 20.2891C130.377 20.6154 130.44 20.965 130.43 21.3163V21.372C130.44 21.7232 130.376 22.0728 130.244 22.3989C130.112 22.7251 129.913 23.0211 129.661 23.2685C129.408 23.5159 129.107 23.7096 128.776 23.8376C128.444 23.9655 128.09 24.0251 127.734 24.0125H121.154V18.6758ZM121.154 7.99133H126.06C127.888 7.99133 128.868 9.16696 128.868 10.6319C128.868 12.0745 127.81 13.2724 126.06 13.2724H121.154V7.99133Z" fill="#2DBE64"/>
<path d="M44.9258 29.4085L37.3649 18.4051V29.4085H30.4949V2.56936H37.3649V13.328L44.907 2.56936H52.7944L43.3265 15.6867L53.1023 29.4085H44.9258Z" fill="#2DBE64"/>
<path d="M199.54 2.56936V29.4085H192.67V8.61438H183.378V21.6724C183.378 26.3081 180.169 30.0724 175.472 30.0724C170.085 30.0724 167.585 26.0411 167.585 21.7465H174.031C174.031 22.6403 174.087 23.9902 175.281 23.9902C176.125 23.9902 176.531 23.3079 176.531 22.4141V2.56936H199.54Z" fill="#2DBE64"/>
<path d="M76.4605 2.56936L70.5327 15.5495L63.336 2.56936H55.4298L66.7636 22.2212C66.3994 22.8702 65.108 23.9902 63.2046 23.9902C60.9709 23.9902 58.97 22.7553 58.4707 19.9812H51.8146C52.7006 26.9163 57.6448 30.0724 62.8968 30.0724C69.0724 30.0724 72.7101 26.1375 74.4595 22.3733L83.965 2.56936H76.4605Z" fill="#2DBE64"/>
<path d="M26.8608 21.5759C26.8608 18.954 25.0326 16.4432 22.8965 15.3418C24.3418 13.9177 25.2841 12.0152 25.2841 10.172C25.2841 6.04803 22.2245 2.56936 16.567 2.56936H0V29.4085H18.2751C23.2231 29.4085 26.8571 26.1598 26.8608 21.5759ZM6.7124 18.6758H17.3704C17.7259 18.663 18.0804 18.7223 18.4118 18.8502C18.7432 18.9781 19.0446 19.1717 19.2972 19.4192C19.5498 19.6667 19.7484 19.9627 19.8806 20.2891C20.0128 20.6154 20.0759 20.965 20.0659 21.3163V21.372C20.0756 21.7232 20.0124 22.0728 19.8801 22.3989C19.7478 22.7251 19.5492 23.0211 19.2966 23.2685C19.044 23.5159 18.7428 23.7096 18.4115 23.8376C18.0802 23.9655 17.7259 24.0251 17.3704 24.0125H6.7124V18.6758ZM6.7124 7.99133H15.696C17.5243 7.99133 18.5041 9.16696 18.5041 10.6319C18.5041 12.0745 17.4455 13.2724 15.696 13.2724H6.7124V7.99133Z" fill="#2DBE64"/>
<path d="M111.055 19.336C109.67 25.4774 104.455 30.0946 97.1646 30.0946C88.6014 30.0946 82.9064 23.7269 82.9064 16.0093V15.9908C82.9064 8.29173 88.6014 1.90552 97.1646 1.90552C104.455 1.90552 109.67 6.54498 111.055 12.6827H103.667C103.149 11.4072 102.249 10.3188 101.086 9.56428C99.9237 8.80971 98.5551 8.42514 97.1646 8.46233C92.7009 8.46233 90.0054 11.9039 90.0054 15.9908C90.0054 20.0777 92.7009 23.5193 97.1646 23.5193C98.5507 23.5594 99.9162 23.1803 101.078 22.4326C102.24 21.685 103.143 20.6046 103.667 19.336H111.055Z" fill="#2DBE64"/>
<path d="M165.775 2.56936V29.4085H158.905V13.9177L147.436 29.4085H141.186V2.56936H148.052V18.0824L159.502 2.56936H165.775Z" fill="#2DBE64"/>
<path d="M228 2.56936V29.39H221.13V8.59584H214.185V20.9492C214.185 26.4045 211.009 29.39 206.218 29.39H202.581V23.382H204.6C206.354 23.382 207.315 22.3733 207.315 20.7007V2.56936H228Z" fill="#2DBE64"/>
</svg>
