<svg width="240" height="36" viewBox="0 0 240 36" fill="none" xmlns="http://www.w3.org/2000/svg">
<path d="M101.184 10.2859C98.448 10.2859 96 11.0771 93.936 12.3803V0.232713H88.128V22.6197C88.128 29.4149 93.984 34.9069 101.136 34.9069C108.288 34.9069 114.24 29.4614 114.24 22.5731C114.24 15.6848 108.48 10.2859 101.184 10.2859ZM71.136 10.6582C64.704 11.2633 59.424 16.5226 59.424 22.8059C59.424 29.4149 65.424 35 72.432 35C79.44 35 85.44 29.4614 85.44 22.8059C85.44 19.9668 84.384 17.4069 82.608 15.359L69.792 0.279255H62.304L71.136 10.6582ZM26.352 24.2021L21.024 11.1702H16.944L11.664 24.2021L6.336 11.1702H0L9.312 34.1622H13.392L19.008 20.4787L24.624 34.1622H28.704L37.968 11.1702H31.68L26.352 24.2021ZM129.984 10.3324C122.736 10.3324 116.88 15.6383 116.88 22.387C116.88 29.0891 122.016 35 129.648 35C134.208 35 137.904 32.9056 140.544 29.3684L136.032 25.8777C134.736 28.1117 132.192 29.4149 129.696 29.4149C126.432 29.4149 123.216 27.2274 122.976 24.016H141.936V22.3404C141.888 15.266 136.944 10.3324 129.984 10.3324ZM203.904 10.3324C196.656 10.3324 190.848 15.6383 190.848 22.6662C190.848 29.2753 195.984 34.9535 203.568 34.9535C208.128 34.9535 211.824 32.859 214.464 29.3218L210.48 26.1104C209.088 28.1582 206.544 29.3684 203.472 29.3684C200.448 29.3684 197.136 27.1809 196.896 23.9694H215.76V22.0612C215.76 15.266 210.864 10.3324 203.904 10.3324ZM224.16 17.8723C224.16 16.4295 226.224 15.3125 228.912 15.3125C231.6 15.3125 234.576 16.5691 236.496 18.617L240 14.5678C236.64 11.7753 233.28 10.3324 229.056 10.3324C223.776 10.3324 218.352 12.613 218.352 17.8723C218.352 24.3418 224.256 24.8072 229.056 25.1795C231.744 25.3657 234.144 25.5519 234.144 27.2274C234.144 29.0426 231.408 29.8803 229.056 29.8803C225.984 29.8803 223.056 28.5306 221.088 26.25L217.344 30.0199C220.32 33.4641 224.64 34.9535 228.864 34.9535C234.144 34.9535 239.952 32.5798 239.952 27.1343C239.952 20.9907 234 20.3856 229.44 19.9668C226.512 19.641 224.16 19.4082 224.16 17.8723ZM150.672 16.383V11.1702H144.864V34.1157H150.672V24.3883C151.44 18.9894 156 16.8019 161.28 16.8019V11.1702H160.704C156.24 11.1702 152.976 12.7061 150.672 16.383ZM169.056 16.383V11.1702H163.248V34.1157H169.056V24.3883C169.824 18.2912 175.392 16.8019 179.664 16.8019V11.1702H179.04C174.624 11.1702 171.36 12.6596 169.056 16.383ZM50.688 34.1157H56.496V0.279255H50.688V34.1157ZM72.432 29.4614C68.448 29.4614 65.184 26.4362 65.184 22.6662C65.184 18.8963 68.4 15.8245 72.384 15.8245C76.32 15.8245 79.68 18.8497 79.68 22.6662C79.68 26.4827 76.464 29.4614 72.432 29.4614ZM101.184 29.4614C97.248 29.4614 93.936 26.4827 93.936 22.6197C93.936 18.7566 97.056 15.8245 101.184 15.8245C105.312 15.8245 108.48 18.8497 108.48 22.6197C108.48 26.3896 105.168 29.4614 101.184 29.4614ZM40.656 34.1157H46.464V11.1702H40.656V34.1157ZM182.112 34.1157H187.92V11.1702H182.112V34.1157ZM43.488 0C41.136 0 39.168 1.8617 39.168 4.18883C39.168 6.5625 41.232 8.19149 43.488 8.19149C45.984 8.19149 47.904 6.19016 47.904 4.09575C47.904 1.95479 45.888 0 43.488 0ZM184.992 0C182.64 0 180.624 1.8617 180.624 4.18883C180.624 6.51596 182.544 8.19149 185.088 8.19149C187.632 8.19149 189.36 6.5625 189.36 4.28192C189.36 2.00133 187.392 0 184.992 0ZM197.568 19.4082C198.528 17.1277 200.592 15.8245 203.616 15.8245C206.64 15.8245 208.512 17.2207 209.28 19.4082H197.568ZM123.6 19.4082C124.56 17.1277 126.624 15.8245 129.6 15.8245C132.624 15.8245 134.592 17.2207 135.36 19.4082C135.408 19.4082 123.6 19.4082 123.6 19.4082Z" fill="#E313BF"/>
</svg>
