<svg width="231" height="34" viewBox="0 0 231 34" fill="none" xmlns="http://www.w3.org/2000/svg">
<g clip-path="url(#clip0_151_158)">
<path d="M12.3418 29.2362H16.722V4.53478H10.3511C3.94488 4.53478 0.579053 7.7706 0.579053 12.5324C0.579053 16.3342 2.42334 18.574 5.71865 20.8843L0 29.2348H4.74091L11.1105 19.8883L8.90277 18.4315C6.22448 16.6551 4.92127 15.2689 4.92127 12.2834C4.92127 9.6535 6.80353 7.8758 10.3863 7.8758H12.3405L12.3418 29.2362ZM69.8525 28.0271V24.5795C68.5126 25.4677 66.2697 26.2507 64.1704 26.2507C61.0216 26.2507 59.8269 24.7926 59.6465 21.8071H70.0342V19.57C70.0342 13.3501 67.2461 11.0038 62.9391 11.0038C57.691 11.0038 55.1944 14.9493 55.1944 20.3517C55.1944 26.5703 58.3067 29.5904 63.8083 29.5904C66.5585 29.5904 68.5859 28.8793 69.8525 28.0271ZM96.7791 29.5904C98.7698 29.5904 100.182 29.2348 101.231 28.4891V25.0416C100.146 25.7873 98.8417 26.2507 97.0327 26.2507C93.9557 26.2507 92.6891 23.9044 92.6891 20.2079C92.6891 16.3342 94.2459 14.3448 97.0693 14.3448C98.7332 14.3448 100.362 14.9134 101.231 15.446V11.8586C100.327 11.3606 98.7332 11.0064 96.5987 11.0064C91.0971 11.0064 88.2384 14.8787 88.2384 20.317C88.2384 26.2867 91.0252 29.5904 96.7791 29.5904ZM30.4023 11.3593V18.4315H24.6484V11.3593H20.3414V29.2348H24.6484V21.7725H30.4023V29.2348H34.7093V11.3593H30.4023ZM54.1448 25.8952H52.2259V11.3593H39.6685V12.888C39.6685 17.2583 39.3783 22.9097 37.8581 25.8952H36.5196V33.3229H40.4998V29.2348H50.1633V33.3229H54.1448V25.8938V25.8952ZM83.6046 29.2348H88.4906L81.5786 19.6046L87.6594 11.3593H83.3158L77.2351 19.6046V11.3593H72.9281V29.2348H77.2351V20.4569L83.6046 29.2348ZM62.8672 14.3448C65.0031 14.3448 65.654 16.0865 65.654 18.325V18.6805H59.6465C59.755 15.8375 60.8046 14.3448 62.8672 14.3448ZM47.919 25.8938H41.8396C43.033 23.192 43.3584 18.3236 43.3584 15.2316V14.699H47.919V25.8938Z" fill="black"/>
<path d="M140.768 16.9987C140.768 7.88645 133.245 0.5 123.965 0.5C114.684 0.5 107.161 7.88645 107.161 16.9987C107.161 26.1122 114.684 33.5 123.963 33.5C133.245 33.5 140.768 26.1122 140.768 16.9987Z" fill="#00ADFF"/>
<path d="M124.637 17.281C126.057 9.9358 127.067 8.66278 130.165 8.89847C132.588 9.08224 135.405 12.5165 132.862 19.9349C130.413 27.0856 125.01 28.356 121.083 26.0709C118.237 24.4131 115.992 20.8324 115.143 18.8563C113.805 15.7509 113.102 12.358 114.863 10.5057C116.304 8.98769 117.96 8.25664 121.083 11.7428C124.206 15.2276 124.637 17.281 124.637 17.281Z" fill="white"/>
<path d="M144.724 25.3266V29.2348C144.724 29.2348 145.34 29.5904 146.534 29.5904C150.805 29.5904 151.999 26.1442 152.216 17.1172L152.47 7.8758H158.622V29.2362H163.001V4.53611H148.525L148.198 17.1864C148.054 23.1933 147.728 25.6462 145.955 25.6462C145.086 25.6462 144.724 25.3266 144.724 25.3266ZM180.24 17.0453C180.24 12.7095 177.997 11.0743 173.436 11.0743C170.576 11.0743 168.333 11.9638 167.03 12.7095V16.2277C168.188 15.3754 170.722 14.4513 172.929 14.4513C174.992 14.4513 175.933 15.1624 175.933 17.0812V18.0759H175.245C168.659 18.0759 165.727 20.2092 165.727 23.8338C165.727 27.4585 167.971 29.4839 171.301 29.4839C173.834 29.4839 174.92 28.6662 175.753 27.814H175.933C175.97 28.2761 176.115 28.8793 176.258 29.2348H180.457C180.313 27.7823 180.241 26.3239 180.24 24.8645V17.0453ZM175.933 24.971C175.391 25.7527 174.378 26.3919 172.857 26.3919C171.047 26.3919 170.142 25.3266 170.142 23.7273C170.142 21.63 171.626 20.8843 175.319 20.8843H175.933V24.971ZM190.869 29.2362C195.139 29.2362 197.674 27.4585 197.674 24.0469C197.674 21.7006 196.226 20.3503 193.801 19.9242C195.755 19.3916 196.986 18.04 196.986 15.9081C196.986 12.852 194.922 11.3593 190.942 11.3593H183.703V29.2348L190.869 29.2362ZM190.327 14.5578C191.882 14.5578 192.751 15.197 192.751 16.5486C192.751 17.7923 191.81 18.538 190.182 18.538H188.01V14.5578H190.327ZM190.398 21.63C192.244 21.63 193.222 22.2692 193.222 23.7619C193.222 25.3971 192.136 26.0363 190.398 26.0363H188.01V21.63H190.398ZM211.239 29.2362H216.125L209.213 19.6046L215.292 11.3593H210.95L204.869 19.6046V11.3593H200.562V29.2348H204.869V20.4569L211.239 29.2362ZM230.783 17.0453C230.783 12.7095 228.539 11.0743 223.978 11.0743C221.119 11.0743 218.875 11.9638 217.572 12.7095V16.2277C218.73 15.3754 221.263 14.4513 223.471 14.4513C225.535 14.4513 226.476 15.1624 226.476 17.0812V18.0759H225.789C219.201 18.0759 216.269 20.2092 216.269 23.8338C216.269 27.4585 218.513 29.4839 221.842 29.4839C224.377 29.4839 225.462 28.6662 226.294 27.814H226.476C226.511 28.2761 226.656 28.8793 226.802 29.2348H231C230.855 27.7824 230.783 26.3239 230.783 24.8645V17.0453ZM226.476 24.971C225.932 25.7527 224.919 26.3919 223.399 26.3919C221.59 26.3919 220.684 25.3266 220.684 23.7273C220.684 21.63 222.169 20.8843 225.86 20.8843H226.476V24.971Z" fill="black"/>
</g>
<defs>
<clipPath id="clip0_151_158">
<rect width="231" height="34" fill="white"/>
</clipPath>
</defs>
</svg>
