<svg width="48" height="48" viewBox="0 0 48 48" fill="none" xmlns="http://www.w3.org/2000/svg">
<path d="M24 2.40039C25.1469 2.40039 26.2776 2.6713 27.2998 3.19141C28.3219 3.71145 29.2066 4.46561 29.8818 5.39258L31.0469 6.99121L32.9971 6.68359C34.1301 6.50528 35.2892 6.59723 36.3799 6.95215C37.4708 7.30717 38.4622 7.91536 39.2734 8.72656C40.0846 9.53776 40.6928 10.5292 41.0479 11.6201C41.4028 12.7108 41.4947 13.8699 41.3164 15.0029L41.0088 16.9531L42.6074 18.1182C43.5344 18.7934 44.2885 19.6781 44.8086 20.7002C45.3287 21.7224 45.5996 22.8531 45.5996 24C45.5996 25.1469 45.3287 26.2776 44.8086 27.2998C44.2885 28.3219 43.5344 29.2066 42.6074 29.8818L41.0088 31.0469L41.3164 32.9971C41.4947 34.1301 41.4028 35.2892 41.0479 36.3799C40.6928 37.4708 40.0846 38.4622 39.2734 39.2734C38.4622 40.0846 37.4708 40.6928 36.3799 41.0479C35.2892 41.4028 34.1301 41.4947 32.9971 41.3164L31.0469 41.0088L29.8818 42.6074C29.2066 43.5344 28.3219 44.2885 27.2998 44.8086C26.2776 45.3287 25.1469 45.5996 24 45.5996C22.8531 45.5996 21.7224 45.3287 20.7002 44.8086C19.6781 44.2885 18.7934 43.5344 18.1182 42.6074L16.9531 41.0088L15.0029 41.3164C13.8699 41.4947 12.7108 41.4028 11.6201 41.0479C10.5292 40.6928 9.53776 40.0846 8.72656 39.2734C7.91536 38.4622 7.30717 37.4708 6.95215 36.3799C6.59723 35.2892 6.50528 34.1301 6.68359 32.9971L6.99121 31.0469L5.39258 29.8818C4.46561 29.2066 3.71145 28.3219 3.19141 27.2998C2.6713 26.2776 2.40039 25.1469 2.40039 24C2.40039 22.8531 2.6713 21.7224 3.19141 20.7002C3.71145 19.6781 4.46562 18.7934 5.39258 18.1182L6.99121 16.9531L6.68359 15.0029C6.50528 13.8699 6.59723 12.7108 6.95215 11.6201C7.30717 10.5292 7.91536 9.53776 8.72656 8.72656C9.53776 7.91536 10.5292 7.30717 11.6201 6.95215C12.7108 6.59723 13.8699 6.50528 15.0029 6.68359L16.9531 6.99121L18.1182 5.39258C18.7934 4.46562 19.6781 3.71145 20.7002 3.19141C21.7224 2.6713 22.8531 2.40039 24 2.40039ZM32.4277 17.6211C31.5559 16.9432 30.2992 17.1009 29.6211 17.9727L22.6113 26.9834L19.4141 23.7861C18.633 23.0051 17.367 23.0051 16.5859 23.7861C15.805 24.5672 15.8049 25.8332 16.5859 26.6143L20.585 30.6133C21.8609 31.8891 23.9664 31.7582 25.0742 30.334L32.7783 20.4277C33.4564 19.5559 33.2995 18.2992 32.4277 17.6211Z" fill="white"/>
</svg>
