<svg width="48" height="48" viewBox="0 0 48 48" fill="none" xmlns="http://www.w3.org/2000/svg">
<path d="M24.4421 2.40039C25.8059 2.40067 27.1145 2.92046 28.0788 3.8457L40.4929 15.7549C41.4573 16.6798 41.9993 17.934 41.9997 19.2422C41.9997 27.0953 42.0011 34.9487 42.0007 42.8018C42.0005 45.0102 40.2101 46.8003 38.0016 46.8008C28.6674 46.803 19.333 46.803 9.99872 46.8008C7.79029 46.8002 5.99987 45.0102 5.99969 42.8018C5.99968 30.6674 6.003 18.5328 6.00067 6.39844C6.00025 4.18993 7.79021 2.39884 9.99872 2.39844C14.8132 2.39757 19.6276 2.40039 24.4421 2.40039ZM15.6003 28C14.4957 28 13.6003 28.8954 13.6003 30C13.6004 31.1045 14.4958 32 15.6003 32H30.0007C31.1048 31.9996 32.0006 31.1042 32.0007 30C32.0007 28.8957 31.1049 28.0004 30.0007 28H15.6003ZM15.6003 20.7998C14.4957 20.7998 13.6003 21.6953 13.6003 22.7998C13.6003 23.9044 14.4957 24.7998 15.6003 24.7998H30.0007C31.1049 24.7994 32.0007 23.9041 32.0007 22.7998C32.0007 21.6955 31.1049 20.8002 30.0007 20.7998H15.6003Z" fill="white"/>
</svg>
