<svg width="48" height="48" viewBox="0 0 48 48" fill="none" xmlns="http://www.w3.org/2000/svg">
<path fill-rule="evenodd" clip-rule="evenodd" d="M9 19V41.5C9 42.163 9.26339 42.7989 9.73223 43.2678C10.2011 43.7366 10.837 44 11.5 44H36.5C37.163 44 37.7989 43.7366 38.2678 43.2678C38.7366 42.7989 39 42.163 39 41.5V19L24 4L9 19ZM30 26C30 24.8954 29.1046 24 28 24H20C18.8954 24 18 24.8954 18 26V34C18 35.1046 18.8954 36 20 36H28C29.1046 36 30 35.1046 30 34V26Z" fill="white"/>
<path d="M9 19V41.5C9 42.163 9.26339 42.7989 9.73223 43.2678C10.2011 43.7366 10.837 44 11.5 44H36.5C37.163 44 37.7989 43.7366 38.2678 43.2678C38.7366 42.7989 39 42.163 39 41.5V19M9 19L24 4L39 19M9 19L4 24M39 19L44 24M20 36H28C29.1046 36 30 35.1046 30 34V26C30 24.8954 29.1046 24 28 24H20C18.8954 24 18 24.8954 18 26V34C18 35.1046 18.8954 36 20 36Z" stroke="white" stroke-width="2" stroke-linecap="round" stroke-linejoin="round"/>
</svg>
