<svg width="48" height="48" viewBox="0 0 48 48" fill="none" xmlns="http://www.w3.org/2000/svg">
<path d="M24 3.59961C28.4556 3.59961 32.7293 5.07781 35.8799 7.70801C39.0303 10.3382 40.7998 13.9055 40.7998 17.625C40.7998 25.0336 35.2126 33.4308 25.374 43.0713C24.6112 43.8188 23.3888 43.8188 22.626 43.0713C12.7874 33.4308 7.2002 25.0336 7.2002 17.625C7.2002 13.9055 8.96974 10.3382 12.1201 7.70801C15.2707 5.07781 19.5444 3.59961 24 3.59961ZM24 10.7998C22.0904 10.7998 20.2594 11.5589 18.9092 12.9092C17.5589 14.2594 16.7998 16.0904 16.7998 18C16.7998 19.9096 17.5589 21.7406 18.9092 23.0908C20.2594 24.4411 22.0904 25.2002 24 25.2002C25.9096 25.2002 27.7406 24.4411 29.0908 23.0908C30.4411 21.7406 31.2002 19.9096 31.2002 18C31.2002 16.0904 30.4411 14.2594 29.0908 12.9092C27.7406 11.5589 25.9096 10.7998 24 10.7998Z" fill="white"/>
</svg>
